# xmcd CD database file
#
# Track frame offsets:
#	150
#	4627
#	21335
#	55875
#	86482
#	106759
#	138943
#	161975
#	215638
#	248685
#	276186
#	305181
#	335131
#
# Disc length: 4684 seconds
#
# Revision: 0
# Processed by: cddbd v1.5PL3 Copyright (c) Steve Scherf et al.
# Submitted via: CDex 1.51
#
DISCID=ba124a0d
DTITLE=The Jimi Hendrix Experience - 1968.10.10-12 The Definitive Winterland [Disc One]
DYEAR=2004
DGENRE=Blues
TTITLE0=Intro
TTITLE1=Fire
TTITLE2=Manic Depression
TTITLE3=Sunshine Of Your Love
TTITLE4=Little Wing
TTITLE5=Spanish Castle Magic
TTITLE6=Lover Man
TTITLE7=Like A Rolling Stone
TTITLE8=Voodoo Chile (Slight Return)
TTITLE9=Foxy Lady
TTITLE10=Star Spangled Banner
TTITLE11=Hey Joe
TTITLE12=Wild Thing
EXTD=YEAR: 2004
EXTT0=
EXTT1=
EXTT2=
EXTT3=
EXTT4=
EXTT5=
EXTT6=
EXTT7=
EXTT8=
EXTT9=
EXTT10=
EXTT11=
EXTT12=
PLAYORDER=
